<svg width="40" height="35" viewBox="0 0 40 35" fill="none" xmlns="http://www.w3.org/2000/svg">
<path fill-rule="evenodd" clip-rule="evenodd" d="M3.00402 2.58214C4.97609 0.750939 7.69308 0 10.6977 0H29.3023C32.307 0 35.024 0.750939 36.9959 2.58214C38.9868 4.43073 40 7.17591 40 10.6977V23.7209C40 27.2428 38.9868 29.9879 36.9959 31.8365C35.024 33.6677 32.307 34.4186 29.3023 34.4186H10.6977C7.69308 34.4186 4.97609 33.6677 3.00402 31.8365C1.01325 29.9879 0 27.2428 0 23.7209V10.6977C0 7.17591 1.01325 4.43073 3.00402 2.58214Z" fill="#88A09F"/>
<path fill-rule="evenodd" clip-rule="evenodd" d="M33.7003 8.48496C34.1716 9.09475 34.0592 9.97106 33.4495 10.4422L23.1293 18.4168C21.2867 19.8404 18.7154 19.8404 16.8728 18.4168L6.55267 10.4422C5.94286 9.97106 5.83051 9.09475 6.30171 8.48496C6.77291 7.87516 7.64921 7.7628 8.25901 8.234L18.579 16.2084C19.4166 16.8556 20.5855 16.8556 21.4229 16.2084L31.7431 8.234C32.353 7.7628 33.2292 7.87516 33.7003 8.48496Z" fill="white"/>
</svg>
