<svg width="40" height="40" viewBox="0 0 40 40" fill="none" xmlns="http://www.w3.org/2000/svg">
<path fill-rule="evenodd" clip-rule="evenodd" d="M39.2811 34.6554C38.0464 38.4073 33.2091 40.2784 29.753 39.9665C25.033 39.5398 19.897 37.0364 15.9983 34.2791C10.2675 30.2259 4.89949 23.9562 1.77147 17.303C-0.439216 12.6018 -0.935213 6.82168 2.35281 2.53646C3.56882 0.952507 4.8835 0.10655 6.85951 0.007886C9.60087 -0.125444 9.98487 1.44279 10.9262 3.88539C11.6276 5.712 12.5636 7.57529 13.0862 9.46857C14.0649 13.0018 10.6435 13.1495 10.2115 16.0374C9.9422 17.8587 12.1502 20.3011 13.1476 21.5998C15.1022 24.1437 17.4516 26.3378 20.1023 28.0071C21.6196 28.9644 24.0703 30.6895 25.809 29.7376C28.4863 28.2709 28.233 23.7566 31.977 25.2846C33.9157 26.0739 35.7931 27.2129 37.6438 28.2103C40.5051 29.7489 40.3718 31.3435 39.2811 34.6554C40.0971 32.1808 38.4651 37.13 39.2811 34.6554Z" fill="#88A09F"/>
</svg>
