<svg width="148" height="70" viewBox="0 0 148 70" fill="none" xmlns="http://www.w3.org/2000/svg">
<path d="M92.4437 0.236323H90.4732C90.0011 0.236323 89.5214 0.0995046 89.0608 0H87.4283L86.1117 2.48187C86.1117 2.48187 86.9687 2.62061 87.5949 2.24459C86.3204 6.92609 80.8358 10.4097 75.2832 7.57861C70.6861 5.23547 62.3184 5.74161 58.5755 14.0445C58.4922 14.2292 58.4041 14.41 58.3084 14.5879C56.7553 17.4755 54.5214 21.3055 50.745 21.9293C52.1228 22.2785 54.0407 21.6241 54.7311 21.1486L51.5378 24.0265L49.2656 28.2507L50.0402 31.4846H52.5499L53.0057 30.6388L52.344 30.1709H52.096C51.5167 30.1709 51.0983 28.9185 51.1739 28.3971C51.5234 25.9937 55.2941 23.5701 58.2481 22.024C61.202 20.4779 64.5743 18.2667 65.8287 14.8874C65.7157 16.6058 65.2647 18.3978 62.757 20.5984L60.7491 24.3279L62.8221 30.4819H65.6056L66.0594 29.638L65.3442 29.1673C65.3442 29.1673 64.492 29.1654 64.1368 28.5769C62.3424 25.6004 63.1496 23.4295 64.4987 21.9216C67.8845 18.1376 67.759 17.7281 68.322 15.3294C68.7185 13.6398 69.6013 12.4878 69.6013 12.4878C68.4638 10.8355 66.4367 10.4748 66.4367 10.4748C69.7373 10.7819 72.1827 12.6199 73.6334 14.3966C74.2347 15.1333 74.8868 15.9188 76.0367 16.6785C76.8362 17.2066 78.1978 17.9673 80.0506 18.2256C79.8361 19.3804 78.8834 21.0175 77.9747 21.9503L75.288 27.0145L76.3278 30.4819H78.3951L78.8106 29.7002L78.0427 29.2639C76.8975 29.2639 76.2991 25.7286 79.3162 23.2343C80.56 22.2058 81.3921 21.3055 81.9321 20.6242C81.9886 20.5525 81.9197 19.6971 81.2849 18.7002C80.3503 17.2353 80.8272 15.7409 80.8272 15.7409C80.8272 15.7409 80.8051 17.3415 81.9743 18.3988C85.1034 21.2289 86.1854 24.7068 85.9202 26.9543C87.501 28.022 87.908 31.4836 87.908 31.4836H90.7786L91.2258 30.6398L90.4013 30.169C89.2801 30.169 88.7659 28.8381 88.6328 28.5176C88.223 27.5312 87.704 26.0759 87.1975 24.0791C86.1059 19.7804 86.9552 16.6316 86.9552 16.6316C90.0729 14.3918 89.4611 11.0374 89.4448 9.42901C89.4036 5.18763 91.6796 4.02037 93.4328 4.02037L96.3216 4.0175L98.2874 3.47788L98.9768 2.17857C97.2399 1.49831 95.4474 1.36627 94.6039 0.885973C93.969 0.525269 93.4338 0.233453 92.4408 0.233453L92.4437 0.236323Z" fill="white"/>
<path d="M11.178 57.855C7.01187 57.855 3.04681 56.6982 0 54.5962L0.751647 50.0592C1.82215 52.054 3.33885 53.7648 5.16099 55.0277C7.34125 56.5384 9.83366 57.3373 12.3692 57.3373C15.1728 57.3373 17.2075 56.0572 17.2075 54.2929C17.2075 51.9679 15.2015 51.1528 10.3057 49.8889C4.45818 48.2863 0.990068 47.363 0.990068 43.777C0.990068 42.427 1.75512 41.0626 3.08798 40.035C4.20923 39.1711 6.25448 38.1406 9.63258 38.1406C13.4349 38.1406 16.6406 38.8946 20.0072 40.5842L19.4078 44.1721C15.7329 39.0314 11.3073 38.353 8.88189 38.4678C7.65436 38.5626 4.37488 38.9089 4.37488 41.7276C4.37488 44.2879 7.48392 45.3097 11.0832 46.2282C11.6347 46.3689 12.6985 46.655 12.6985 46.655C17.1242 47.806 20.9456 48.5723 20.9456 51.9995C20.9456 54.1417 19.2585 55.509 17.8433 56.2792C16.0048 57.279 13.5756 57.8531 11.1771 57.8531L11.178 57.855Z" fill="white"/>
<path d="M40.0324 56.9548C40.0803 56.2765 39.8553 55.3379 39.3325 54.029L39.322 54.0041L37.9594 51.2391H28.0607L26.4281 54.4873C26.1466 55.1063 25.8478 56.0124 25.9398 56.9548H23.6484C24.7113 55.6067 25.6736 53.8252 26.6885 51.9461L32.7496 40.6686L32.515 40.1921C32.2737 39.7281 31.8246 39.5808 31.0452 39.5808H30.2553L30.5435 39.0469H36.3891L42.1782 49.8173L43.2573 51.8629C43.5743 52.4628 45.1369 55.3809 46.3606 56.9539H40.0315L40.0324 56.9548ZM33.0617 41.302L28.2665 50.8296H37.7574L33.0617 41.302Z" fill="white"/>
<path d="M58.2224 57.8428C52.7751 57.8428 48.3438 53.8167 48.3438 48.8673C48.3438 45.7387 49.4908 43.0463 51.6606 41.0821C53.7441 39.1953 56.6234 38.1562 59.7669 38.1562C64.4281 38.1562 67.3303 40.1282 68.036 40.6659L67.1713 45.8353C66.6227 45.1407 65.6862 44.0423 64.4692 42.9373C62.604 41.2438 59.7037 39.225 56.4788 39.225C53.2539 39.225 50.7576 41.97 50.7576 45.4746C50.7576 48.0034 51.8885 50.4336 53.9423 52.3175C55.8631 54.0789 58.3076 55.0892 60.6488 55.0892C63.8009 55.0892 66.0012 53.7938 67.8023 51.2497L68.1968 51.6248C67.044 53.8378 63.5672 57.8409 58.2215 57.8409L58.2224 57.8428Z" fill="white"/>
<path d="M83.453 57.8428C80.2836 57.8428 77.3737 56.8966 75.2605 55.1792C73.1635 53.4752 72.0078 51.1196 72.0078 48.5478C72.0078 44.713 74.1115 42.2972 75.8762 40.9453C78.1905 39.1733 81.3541 38.1562 84.556 38.1562C87.7579 38.1562 90.5874 39.0269 92.5761 40.6094C94.586 42.2082 95.6488 44.427 95.6488 47.0246C95.6488 50.0643 94.3322 52.8447 91.9413 54.8529C89.6797 56.7531 86.5859 57.8428 83.453 57.8428ZM81.9525 39.0394C78.1905 39.0394 76.0332 41.5413 76.0332 45.9033C76.0332 49.3716 78.4509 56.533 85.9243 56.533C88.6551 56.533 91.8436 54.7352 91.8436 49.6691C91.8436 46.7079 90.6927 43.9591 88.6015 41.9269C86.742 40.1186 84.2554 39.0394 81.9516 39.0394H81.9525Z" fill="white"/>
<path d="M110.484 57.8428C107.315 57.8428 104.405 56.8966 102.292 55.1792C100.195 53.4742 99.0391 51.1196 99.0391 48.5478C99.0391 44.713 101.143 42.2972 102.907 40.9453C105.222 39.1733 108.385 38.1562 111.587 38.1562C114.789 38.1562 117.619 39.0279 119.607 40.6094C121.617 42.2082 122.679 44.427 122.679 47.0246C122.679 50.0643 121.363 52.8447 118.972 54.8529C116.71 56.7531 113.616 57.8428 110.483 57.8428H110.484ZM108.985 39.0394C105.223 39.0394 103.065 41.5413 103.065 45.9033C103.065 49.3716 105.483 56.533 112.957 56.533C115.687 56.533 118.876 54.7352 118.876 49.6691C118.876 46.7079 117.725 43.9581 115.634 41.9269C113.773 40.1186 111.288 39.0394 108.984 39.0394H108.985Z" fill="white"/>
<path d="M142.382 56.9569C142.376 56.7723 142.323 56.4651 142.052 56.1063C141.486 55.3543 141.07 54.8118 140.675 54.2952C140.146 53.6034 139.508 52.8074 138.674 51.7989C136.817 49.5534 133.134 48.7124 130.73 48.9038L130.756 52.949C130.756 55.0491 130.957 56.268 131.143 56.9579H126.307C126.489 56.2709 126.681 55.0501 126.694 52.949L126.76 43.3315C126.772 41.018 126.524 39.7426 126.281 39.0499C126.281 39.0499 130.14 39.1561 137.168 39.0499C144.196 38.9437 145.724 41.6294 145.724 43.8041C145.724 49.3161 137.688 49.2166 137.688 49.2166C137.688 49.2166 139.755 50.1064 142.172 49.9591C143.082 50.9991 143.85 51.9492 145.011 53.4618C146.209 55.0223 147.003 56.1016 147.997 56.4709L147.737 56.9569H142.382ZM133.723 39.6297C131.645 39.6297 130.961 39.8479 130.961 39.8479C130.961 39.8479 130.689 40.7616 130.689 43.3315L130.715 47.3413C130.715 47.3413 132.373 48.6005 136.035 48.6005C138.01 48.6005 142.078 47.3021 141.605 43.6616C141.363 41.7987 139.546 39.6307 133.723 39.6307V39.6297Z" fill="white"/>
<path d="M49.2734 65.4453H51.1664C51.8693 65.4453 52.3882 65.9706 52.3882 66.6355C52.3882 66.9589 52.2724 67.1847 52.1565 67.3311C52.0895 67.4163 52.01 67.4899 51.9305 67.5512V67.5818C52.0282 67.6363 52.1134 67.71 52.1871 67.8018C52.3155 67.954 52.4495 68.1865 52.4495 68.528C52.4495 69.1997 51.9305 69.7183 51.2459 69.7183H49.2734V65.4463V65.4453ZM51.1368 67.3072C51.4728 67.3072 51.7477 67.0326 51.7477 66.6662C51.7477 66.2997 51.4728 66.0251 51.1368 66.0251H49.915V67.3072H51.1368ZM51.198 69.1385C51.5341 69.1385 51.8089 68.8639 51.8089 68.4974C51.8089 68.131 51.5341 67.8564 51.198 67.8564H49.915V69.1385H51.198Z" fill="white"/>
<path d="M55.9062 65.4453H57.8299C58.5327 65.4453 59.0823 65.9888 59.0823 66.8183C59.0823 67.6478 58.5327 68.1913 57.8299 68.1913H57.6776L59.2049 69.7173H58.3805L56.8532 68.1913H56.5478V69.7173H55.9062V65.4453ZM57.8002 67.5818C58.142 67.5818 58.4417 67.2766 58.4417 66.8192C58.4417 66.3619 58.143 66.0567 57.8002 66.0567H56.5478V67.5827H57.8002V67.5818Z" fill="white"/>
<path d="M62.3594 67.5874C62.3594 66.2756 63.2815 65.3906 64.4056 65.3906C65.5297 65.3906 66.4518 66.2756 66.4518 67.5874C66.4518 68.8991 65.5297 69.7841 64.4056 69.7841C63.2815 69.7841 62.3594 68.8991 62.3594 67.5874ZM63.0009 67.5874C63.0009 68.5642 63.6051 69.1747 64.4056 69.1747C65.2061 69.1747 65.8103 68.5642 65.8103 67.5874C65.8103 66.6105 65.2061 66.001 64.4056 66.001C63.6051 66.001 63.0009 66.6115 63.0009 67.5874Z" fill="white"/>
<path d="M70.734 66.0557H69.3906V65.4453H72.7189V66.0557H71.3755V69.7173H70.734V66.0557Z" fill="white"/>
<path d="M75.9609 65.4453H76.6025V67.246H78.7703V65.4453H79.4118V69.7173H78.7703V67.8554H76.6025V69.7173H75.9609V65.4453Z" fill="white"/>
<path d="M82.9922 65.4453H85.8015V66.0557H83.6337V67.2766H85.6799V67.887H83.6337V69.1078H85.8015V69.7183H82.9922V65.4463V65.4453Z" fill="white"/>
<path d="M89.2578 65.4453H91.1815C91.8843 65.4453 92.4339 65.9888 92.4339 66.8183C92.4339 67.6478 91.8843 68.1913 91.1815 68.1913H91.0292L92.5565 69.7173H91.732L90.2048 68.1913H89.8994V69.7173H89.2578V65.4453ZM91.1508 67.5818C91.4926 67.5818 91.7923 67.2766 91.7923 66.8192C91.7923 66.3619 91.4926 66.0567 91.1508 66.0567H89.8984V67.5827H91.1508V67.5818Z" fill="white"/>
<path d="M96.3203 68.4121C96.3203 68.8092 96.7234 69.1747 97.3582 69.1747C98.061 69.1747 98.3358 68.9001 98.3358 68.5336C98.3358 68.2227 98.0917 68.0151 97.6033 67.9232L96.7789 67.7711C96.101 67.6486 95.7706 67.2276 95.7706 66.6421C95.7706 65.9408 96.3509 65.3906 97.2979 65.3906C98.3665 65.3906 98.9161 66.001 98.9161 66.7636H98.2745C98.2745 66.3665 97.9078 66.001 97.2969 66.001C96.686 66.001 96.4112 66.3005 96.4112 66.6421C96.4112 66.9167 96.5884 67.13 97.0528 67.2219L97.7249 67.3434C98.5857 67.4955 98.9774 67.8562 98.9774 68.5336C98.9774 69.211 98.4277 69.7851 97.3592 69.7851C96.2906 69.7851 95.6797 69.1747 95.6797 68.4121H96.3212H96.3203Z" fill="white"/>
</svg>
