<svg width="40" height="40" viewBox="0 0 40 40" fill="none" xmlns="http://www.w3.org/2000/svg">
<path d="M12.276 14.7618H14.4978C14.7532 13.6901 15.0845 12.7046 15.4778 11.8333C14.7263 12.2511 14.0282 12.7758 13.4035 13.4006C12.9812 13.8229 12.6049 14.2788 12.276 14.7618Z" fill="#88A09F"/>
<path d="M12.276 25.2344C12.6049 25.7174 12.9812 26.1734 13.4035 26.5956C14.0282 27.2204 14.7263 27.7451 15.4778 28.1629C15.0844 27.2916 14.7532 26.3062 14.4978 25.2344H12.276Z" fill="#88A09F"/>
<path d="M27.7278 14.7618C27.3989 14.2788 27.0227 13.8229 26.6004 13.4006C25.9756 12.7758 25.2776 12.2511 24.526 11.8333C24.9195 12.7046 25.2507 13.6901 25.5061 14.7618H27.7278Z" fill="#88A09F"/>
<path d="M21.7535 12.6573C21.0015 11.1532 20.2471 10.6667 19.9995 10.6667C19.7519 10.6667 18.9974 11.1532 18.2454 12.6573C17.9339 13.2803 17.6666 13.99 17.4479 14.7609H22.551C22.3323 13.99 22.065 13.2803 21.7535 12.6573Z" fill="#88A09F"/>
<path d="M18.2454 27.338C18.9974 28.842 19.7519 29.3286 19.9995 29.3286C20.2471 29.3286 21.0015 28.842 21.7535 27.338C22.065 26.7149 22.3324 26.0052 22.551 25.2344H17.4479C17.6667 26.0052 17.9339 26.715 18.2454 27.338Z" fill="#88A09F"/>
<path d="M13.904 20.0002C13.904 19.1855 13.9443 18.3897 14.0206 17.6198H10.9721C10.771 18.3874 10.6667 19.1856 10.6667 20.0002C10.6667 20.8147 10.771 21.613 10.9721 22.3806H14.0206C13.9443 21.6106 13.904 20.8149 13.904 20.0002Z" fill="#88A09F"/>
<path d="M26.0957 20.0002C26.0957 20.8149 26.0554 21.6106 25.9792 22.3806H29.0277C29.2287 21.613 29.3331 20.8147 29.3331 20.0002C29.3331 19.1856 29.2288 18.3874 29.0277 17.6198H25.9792C26.0554 18.3897 26.0957 19.1855 26.0957 20.0002Z" fill="#88A09F"/>
<path d="M20 0C8.9543 0 0 8.9543 0 20C0 31.0457 8.9543 40 20 40C31.0457 40 40 31.0457 40 20C40 8.9543 31.0457 0 20 0ZM20 32.1875C13.2691 32.1875 7.8125 26.7309 7.8125 20C7.8125 13.2691 13.2691 7.8125 20 7.8125C26.7309 7.8125 32.1875 13.2691 32.1875 20C32.1875 26.7309 26.7309 32.1875 20 32.1875Z" fill="#88A09F"/>
<path d="M16.8943 17.6198C16.8064 18.3933 16.7604 19.1922 16.7604 20.0002C16.7604 20.8081 16.8064 21.6071 16.8943 22.3806H23.1011C23.189 21.6071 23.235 20.8081 23.235 20.0002C23.235 19.1922 23.189 18.3933 23.1011 17.6198H16.8943Z" fill="#88A09F"/>
<path d="M24.526 28.1629C25.2776 27.7451 25.9756 27.2204 26.6004 26.5956C27.0227 26.1734 27.3989 25.7174 27.7278 25.2344H25.5061C25.2507 26.3062 24.9195 27.2916 24.526 28.1629Z" fill="#88A09F"/>
</svg>
